<mxfile host="Electron" modified="2023-06-13T22:48:55.338Z" agent="Mozilla/5.0 (Macintosh; Intel Mac OS X 10_15_7) AppleWebKit/537.36 (KHTML, like Gecko) draw.io/21.3.7 Chrome/112.0.5615.204 Electron/24.5.0 Safari/537.36" etag="ijEb_bX4xqZ7bjdQg6EN" version="21.3.7" type="device">
  <diagram name="Page-1" id="hw6oiQ31l7DK528irrPP">
    <mxGraphModel dx="1306" dy="894" grid="1" gridSize="10" guides="1" tooltips="1" connect="1" arrows="1" fold="1" page="1" pageScale="1" pageWidth="850" pageHeight="1100" math="0" shadow="0">
      <root>
        <mxCell id="0" />
        <mxCell id="1" parent="0" />
        <mxCell id="YHFY_Nwudlgot_cRA0jn-13" value="" style="rounded=1;whiteSpace=wrap;html=1;arcSize=5;fontFamily=SF Mono;dashed=1;" vertex="1" parent="1">
          <mxGeometry x="160" y="190" width="390" height="230" as="geometry" />
        </mxCell>
        <mxCell id="YHFY_Nwudlgot_cRA0jn-1" value="a" style="rounded=1;whiteSpace=wrap;html=1;arcSize=5;fontFamily=SF Mono;" vertex="1" parent="1">
          <mxGeometry x="310" y="240" width="40" height="40" as="geometry" />
        </mxCell>
        <mxCell id="YHFY_Nwudlgot_cRA0jn-3" value="b" style="rounded=1;whiteSpace=wrap;html=1;arcSize=5;fontFamily=SF Mono;" vertex="1" parent="1">
          <mxGeometry x="390" y="240" width="40" height="40" as="geometry" />
        </mxCell>
        <mxCell id="YHFY_Nwudlgot_cRA0jn-4" value="c" style="rounded=1;whiteSpace=wrap;html=1;arcSize=5;fontFamily=SF Mono;" vertex="1" parent="1">
          <mxGeometry x="350" y="310" width="40" height="40" as="geometry" />
        </mxCell>
        <mxCell id="YHFY_Nwudlgot_cRA0jn-5" value="d" style="rounded=1;whiteSpace=wrap;html=1;arcSize=5;fontFamily=SF Mono;" vertex="1" parent="1">
          <mxGeometry x="430" y="310" width="40" height="40" as="geometry" />
        </mxCell>
        <mxCell id="YHFY_Nwudlgot_cRA0jn-6" value="" style="endArrow=classic;html=1;rounded=0;exitX=1;exitY=0.5;exitDx=0;exitDy=0;entryX=0;entryY=0.5;entryDx=0;entryDy=0;" edge="1" parent="1" source="YHFY_Nwudlgot_cRA0jn-4" target="YHFY_Nwudlgot_cRA0jn-5">
          <mxGeometry width="50" height="50" relative="1" as="geometry">
            <mxPoint x="510" y="480" as="sourcePoint" />
            <mxPoint x="560" y="430" as="targetPoint" />
          </mxGeometry>
        </mxCell>
        <mxCell id="YHFY_Nwudlgot_cRA0jn-7" value="" style="endArrow=classic;html=1;rounded=0;exitX=1;exitY=0.5;exitDx=0;exitDy=0;entryX=0;entryY=0.5;entryDx=0;entryDy=0;" edge="1" parent="1" source="YHFY_Nwudlgot_cRA0jn-1" target="YHFY_Nwudlgot_cRA0jn-3">
          <mxGeometry width="50" height="50" relative="1" as="geometry">
            <mxPoint x="510" y="480" as="sourcePoint" />
            <mxPoint x="560" y="430" as="targetPoint" />
          </mxGeometry>
        </mxCell>
        <mxCell id="YHFY_Nwudlgot_cRA0jn-8" value="e" style="rounded=1;whiteSpace=wrap;html=1;arcSize=5;fontFamily=SF Mono;" vertex="1" parent="1">
          <mxGeometry x="470" y="240" width="40" height="40" as="geometry" />
        </mxCell>
        <mxCell id="YHFY_Nwudlgot_cRA0jn-9" value="" style="endArrow=classic;html=1;rounded=0;exitX=1;exitY=0.5;exitDx=0;exitDy=0;entryX=0;entryY=0.5;entryDx=0;entryDy=0;" edge="1" parent="1" source="YHFY_Nwudlgot_cRA0jn-3" target="YHFY_Nwudlgot_cRA0jn-8">
          <mxGeometry width="50" height="50" relative="1" as="geometry">
            <mxPoint x="510" y="480" as="sourcePoint" />
            <mxPoint x="560" y="430" as="targetPoint" />
          </mxGeometry>
        </mxCell>
        <mxCell id="YHFY_Nwudlgot_cRA0jn-10" value="" style="endArrow=classic;html=1;rounded=0;exitX=1;exitY=0.5;exitDx=0;exitDy=0;entryX=0.5;entryY=1;entryDx=0;entryDy=0;" edge="1" parent="1" source="YHFY_Nwudlgot_cRA0jn-5" target="YHFY_Nwudlgot_cRA0jn-8">
          <mxGeometry width="50" height="50" relative="1" as="geometry">
            <mxPoint x="510" y="480" as="sourcePoint" />
            <mxPoint x="560" y="430" as="targetPoint" />
            <Array as="points">
              <mxPoint x="490" y="330" />
            </Array>
          </mxGeometry>
        </mxCell>
        <mxCell id="YHFY_Nwudlgot_cRA0jn-11" value="" style="endArrow=classic;html=1;rounded=0;exitX=0.5;exitY=1;exitDx=0;exitDy=0;entryX=0.5;entryY=1;entryDx=0;entryDy=0;" edge="1" parent="1" source="YHFY_Nwudlgot_cRA0jn-5" target="YHFY_Nwudlgot_cRA0jn-4">
          <mxGeometry width="50" height="50" relative="1" as="geometry">
            <mxPoint x="510" y="480" as="sourcePoint" />
            <mxPoint x="560" y="430" as="targetPoint" />
            <Array as="points">
              <mxPoint x="450" y="390" />
              <mxPoint x="370" y="390" />
            </Array>
          </mxGeometry>
        </mxCell>
        <mxCell id="YHFY_Nwudlgot_cRA0jn-16" value="gc_obj_list" style="text;html=1;strokeColor=none;fillColor=none;align=center;verticalAlign=middle;whiteSpace=wrap;rounded=0;fontFamily=SF Mono;" vertex="1" parent="1">
          <mxGeometry x="160" y="190" width="100" height="30" as="geometry" />
        </mxCell>
        <mxCell id="YHFY_Nwudlgot_cRA0jn-30" value="" style="rounded=1;whiteSpace=wrap;html=1;arcSize=5;fontFamily=SF Mono;dashed=1;" vertex="1" parent="1">
          <mxGeometry x="690" y="190" width="390" height="230" as="geometry" />
        </mxCell>
        <mxCell id="YHFY_Nwudlgot_cRA0jn-31" value="a" style="rounded=1;whiteSpace=wrap;html=1;arcSize=5;fontFamily=SF Mono;" vertex="1" parent="1">
          <mxGeometry x="840" y="240" width="40" height="40" as="geometry" />
        </mxCell>
        <mxCell id="YHFY_Nwudlgot_cRA0jn-32" value="b" style="rounded=1;whiteSpace=wrap;html=1;arcSize=5;fontFamily=SF Mono;" vertex="1" parent="1">
          <mxGeometry x="920" y="240" width="40" height="40" as="geometry" />
        </mxCell>
        <mxCell id="YHFY_Nwudlgot_cRA0jn-33" value="c" style="rounded=1;whiteSpace=wrap;html=1;arcSize=5;fontFamily=SF Mono;" vertex="1" parent="1">
          <mxGeometry x="880" y="310" width="40" height="40" as="geometry" />
        </mxCell>
        <mxCell id="YHFY_Nwudlgot_cRA0jn-34" value="d" style="rounded=1;whiteSpace=wrap;html=1;arcSize=5;fontFamily=SF Mono;" vertex="1" parent="1">
          <mxGeometry x="960" y="310" width="40" height="40" as="geometry" />
        </mxCell>
        <mxCell id="YHFY_Nwudlgot_cRA0jn-35" value="" style="endArrow=classic;html=1;rounded=0;exitX=1;exitY=0.5;exitDx=0;exitDy=0;entryX=0;entryY=0.5;entryDx=0;entryDy=0;dashed=1;strokeColor=#B3B3B3;" edge="1" parent="1" source="YHFY_Nwudlgot_cRA0jn-33" target="YHFY_Nwudlgot_cRA0jn-34">
          <mxGeometry width="50" height="50" relative="1" as="geometry">
            <mxPoint x="1040" y="480" as="sourcePoint" />
            <mxPoint x="1090" y="430" as="targetPoint" />
          </mxGeometry>
        </mxCell>
        <mxCell id="YHFY_Nwudlgot_cRA0jn-36" value="" style="endArrow=classic;html=1;rounded=0;exitX=1;exitY=0.5;exitDx=0;exitDy=0;entryX=0;entryY=0.5;entryDx=0;entryDy=0;dashed=1;strokeColor=#B3B3B3;" edge="1" parent="1" source="YHFY_Nwudlgot_cRA0jn-31" target="YHFY_Nwudlgot_cRA0jn-32">
          <mxGeometry width="50" height="50" relative="1" as="geometry">
            <mxPoint x="1040" y="480" as="sourcePoint" />
            <mxPoint x="1090" y="430" as="targetPoint" />
          </mxGeometry>
        </mxCell>
        <mxCell id="YHFY_Nwudlgot_cRA0jn-37" value="e" style="rounded=1;whiteSpace=wrap;html=1;arcSize=5;fontFamily=SF Mono;" vertex="1" parent="1">
          <mxGeometry x="1000" y="240" width="40" height="40" as="geometry" />
        </mxCell>
        <mxCell id="YHFY_Nwudlgot_cRA0jn-38" value="" style="endArrow=classic;html=1;rounded=0;exitX=1;exitY=0.5;exitDx=0;exitDy=0;entryX=0;entryY=0.5;entryDx=0;entryDy=0;strokeColor=#B3B3B3;dashed=1;" edge="1" parent="1" source="YHFY_Nwudlgot_cRA0jn-32" target="YHFY_Nwudlgot_cRA0jn-37">
          <mxGeometry width="50" height="50" relative="1" as="geometry">
            <mxPoint x="1040" y="480" as="sourcePoint" />
            <mxPoint x="1090" y="430" as="targetPoint" />
          </mxGeometry>
        </mxCell>
        <mxCell id="YHFY_Nwudlgot_cRA0jn-39" value="" style="endArrow=classic;html=1;rounded=0;exitX=1;exitY=0.5;exitDx=0;exitDy=0;entryX=0.5;entryY=1;entryDx=0;entryDy=0;dashed=1;strokeColor=#B3B3B3;" edge="1" parent="1" source="YHFY_Nwudlgot_cRA0jn-34" target="YHFY_Nwudlgot_cRA0jn-37">
          <mxGeometry width="50" height="50" relative="1" as="geometry">
            <mxPoint x="1040" y="480" as="sourcePoint" />
            <mxPoint x="1090" y="430" as="targetPoint" />
            <Array as="points">
              <mxPoint x="1020" y="330" />
            </Array>
          </mxGeometry>
        </mxCell>
        <mxCell id="YHFY_Nwudlgot_cRA0jn-40" value="" style="endArrow=classic;html=1;rounded=0;exitX=0.5;exitY=1;exitDx=0;exitDy=0;entryX=0.5;entryY=1;entryDx=0;entryDy=0;dashed=1;strokeColor=#B3B3B3;" edge="1" parent="1" source="YHFY_Nwudlgot_cRA0jn-34" target="YHFY_Nwudlgot_cRA0jn-33">
          <mxGeometry width="50" height="50" relative="1" as="geometry">
            <mxPoint x="1040" y="480" as="sourcePoint" />
            <mxPoint x="1090" y="430" as="targetPoint" />
            <Array as="points">
              <mxPoint x="980" y="390" />
              <mxPoint x="900" y="390" />
            </Array>
          </mxGeometry>
        </mxCell>
        <mxCell id="YHFY_Nwudlgot_cRA0jn-41" value="gc_obj_list" style="text;html=1;strokeColor=none;fillColor=none;align=center;verticalAlign=middle;whiteSpace=wrap;rounded=0;fontFamily=SF Mono;" vertex="1" parent="1">
          <mxGeometry x="690" y="190" width="100" height="30" as="geometry" />
        </mxCell>
        <mxCell id="YHFY_Nwudlgot_cRA0jn-43" value="" style="shape=flexArrow;endArrow=classic;html=1;rounded=0;fillColor=#f5f5f5;strokeColor=#666666;" edge="1" parent="1">
          <mxGeometry width="50" height="50" relative="1" as="geometry">
            <mxPoint x="590" y="309" as="sourcePoint" />
            <mxPoint x="650" y="309" as="targetPoint" />
          </mxGeometry>
        </mxCell>
        <mxCell id="YHFY_Nwudlgot_cRA0jn-45" value="" style="endArrow=classic;html=1;rounded=0;exitX=0.5;exitY=0;exitDx=0;exitDy=0;" edge="1" parent="1" source="YHFY_Nwudlgot_cRA0jn-1">
          <mxGeometry width="50" height="50" relative="1" as="geometry">
            <mxPoint x="600" y="400" as="sourcePoint" />
            <mxPoint x="330" y="140" as="targetPoint" />
          </mxGeometry>
        </mxCell>
        <mxCell id="YHFY_Nwudlgot_cRA0jn-46" value="" style="endArrow=classic;html=1;rounded=0;exitX=0.5;exitY=0;exitDx=0;exitDy=0;" edge="1" parent="1">
          <mxGeometry width="50" height="50" relative="1" as="geometry">
            <mxPoint x="859.5" y="240" as="sourcePoint" />
            <mxPoint x="859.5" y="140" as="targetPoint" />
          </mxGeometry>
        </mxCell>
      </root>
    </mxGraphModel>
  </diagram>
</mxfile>
